<svg width="52" height="52" viewBox="0 0 52 52" fill="none" xmlns="http://www.w3.org/2000/svg">
<rect width="52" height="52" fill="white"/>
<g clip-path="url(#clip0_33_416)">
<path d="M15.8795 9.52251V15.86H5.73297" stroke="#AEAEAE" stroke-width="2" stroke-linecap="round" stroke-linejoin="round"/>
<path d="M30.1795 23.465H15.8795" stroke="#AEAEAE" stroke-width="2" stroke-linecap="round" stroke-linejoin="round"/>
<path d="M30.1795 31.07H12.0705" stroke="#AEAEAE" stroke-width="2" stroke-linecap="round" stroke-linejoin="round"/>
<path d="M30.1795 38.675H12.0705" stroke="#AEAEAE" stroke-width="2" stroke-linecap="round" stroke-linejoin="round"/>
<path d="M15.8795 5.72H27.5795" stroke="#AEAEAE" stroke-width="2" stroke-linecap="round" stroke-linejoin="round"/>
<path d="M36.1335 19.058V46.28H5.73297V15.86" stroke="#AEAEAE" stroke-width="2" stroke-linecap="round" stroke-linejoin="round"/>
<path d="M12.0705 51.35H42.4645V18.7005" stroke="#AEAEAE" stroke-width="2" stroke-linecap="round" stroke-linejoin="round"/>
<path d="M37.7455 12.35V4.134H39.5785C40.1399 4.19411 40.6593 4.4597 41.0367 4.87967C41.4142 5.29965 41.623 5.84436 41.623 6.409C41.623 6.97365 41.4142 7.51835 41.0367 7.93833C40.6593 8.35831 40.1399 8.6239 39.5785 8.684H36.101" stroke="#AEAEAE" stroke-width="2" stroke-linecap="round" stroke-linejoin="round"/>
<path d="M40.495 10.6665H36.101" stroke="#AEAEAE" stroke-width="2" stroke-linecap="round" stroke-linejoin="round"/>
<path d="M8.27454 13.325L15.873 5.72" stroke="#AEAEAE" stroke-width="2" stroke-linecap="round" stroke-linejoin="round"/>
<path d="M38.662 15.86C42.8585 15.86 46.2605 12.4551 46.2605 8.25499C46.2605 4.05487 42.8585 0.649994 38.662 0.649994C34.4655 0.649994 31.0635 4.05487 31.0635 8.25499C31.0635 12.4551 34.4655 15.86 38.662 15.86Z" stroke="#AEAEAE" stroke-width="2" stroke-linecap="round" stroke-linejoin="round"/>
</g>
<defs>
<clipPath id="clip0_33_416">
<rect width="52" height="52" fill="white"/>
</clipPath>
</defs>
</svg>
