<svg width="52" height="52" viewBox="0 0 52 52" fill="none" xmlns="http://www.w3.org/2000/svg">
<rect width="52" height="52" fill="white"/>
<path d="M19.305 37.8885H9.10001C8.06567 37.8885 7.07369 37.4776 6.3423 36.7462C5.6109 36.0148 5.20001 35.0229 5.20001 33.9885V12.35C5.20001 11.3157 5.6109 10.3237 6.3423 9.5923C7.07369 8.8609 8.06567 8.45001 9.10001 8.45001H42.9C43.9344 8.45001 44.9263 8.8609 45.6577 9.5923C46.3891 10.3237 46.8 11.3157 46.8 12.35V33.2085" stroke="#AEAEAE" stroke-width="2" stroke-linecap="round" stroke-linejoin="round"/>
<path d="M33.15 47.073C38.5348 47.073 42.9 42.7078 42.9 37.323C42.9 31.9382 38.5348 27.573 33.15 27.573C27.7652 27.573 23.4 31.9382 23.4 37.323C23.4 42.7078 27.7652 47.073 33.15 47.073Z" stroke="#AEAEAE" stroke-width="2" stroke-linecap="round" stroke-linejoin="round"/>
<path d="M38.948 14.3C38.376 14.3018 37.8149 14.4566 37.323 14.7485C36.8293 14.4582 36.2677 14.3035 35.695 14.3C35.1223 14.2966 34.5589 14.4446 34.0618 14.7289C33.5647 15.0133 33.1515 15.424 32.8642 15.9194C32.5769 16.4148 32.4255 16.9773 32.4255 17.55C32.4255 18.1227 32.5769 18.6852 32.8642 19.1806C33.1515 19.676 33.5647 20.0867 34.0618 20.371C34.5589 20.6554 35.1223 20.8034 35.695 20.7999C36.2677 20.7965 36.8293 20.6418 37.323 20.3515C37.8149 20.6433 38.376 20.7982 38.948 20.8C39.8099 20.8 40.6366 20.4576 41.2461 19.8481C41.8556 19.2386 42.198 18.4119 42.198 17.55C42.198 16.688 41.8556 15.8614 41.2461 15.2519C40.6366 14.6424 39.8099 14.3 38.948 14.3V14.3Z" stroke="#AEAEAE" stroke-width="2" stroke-linecap="round" stroke-linejoin="round"/>
<path d="M17.355 14.3H12.155C11.0781 14.3 10.205 15.173 10.205 16.25V18.85C10.205 19.9269 11.0781 20.8 12.155 20.8H17.355C18.432 20.8 19.305 19.9269 19.305 18.85V16.25C19.305 15.173 18.432 14.3 17.355 14.3Z" stroke="#AEAEAE" stroke-width="2" stroke-linecap="round" stroke-linejoin="round"/>
<path d="M10.4 28.8145V30.9855" stroke="#AEAEAE" stroke-width="2" stroke-linecap="round" stroke-linejoin="round"/>
<path d="M14.3 28.8145V30.9855" stroke="#AEAEAE" stroke-width="2" stroke-linecap="round" stroke-linejoin="round"/>
<path d="M12.376 17.55H10.205" stroke="#AEAEAE" stroke-width="2" stroke-linecap="round" stroke-linejoin="round"/>
<path d="M19.2855 17.55H17.1145" stroke="#AEAEAE" stroke-width="2" stroke-linecap="round" stroke-linejoin="round"/>
<path d="M18.2 28.8145V30.9855" stroke="#AEAEAE" stroke-width="2" stroke-linecap="round" stroke-linejoin="round"/>
<path d="M22.1 28.8145V30.9855" stroke="#AEAEAE" stroke-width="2" stroke-linecap="round" stroke-linejoin="round"/>
<path d="M27.508 37.882L31.525 41.639L37.817 33.2085" stroke="#AEAEAE" stroke-width="2" stroke-linecap="round" stroke-linejoin="round"/>
</svg>
