<svg width="52" height="54" viewBox="0 0 52 54" fill="none" xmlns="http://www.w3.org/2000/svg">
<rect width="52" height="52" transform="translate(0 1)" fill="white"/>
<path d="M35.75 17.25C36.4396 17.25 37.1009 17.5239 37.5885 18.0115C38.0761 18.4991 38.35 19.1604 38.35 19.85V49.75C38.35 50.4396 38.0761 51.1009 37.5885 51.5885C37.1009 52.0761 36.4396 52.35 35.75 52.35H14.95C14.2604 52.35 13.5991 52.0761 13.1115 51.5885C12.6239 51.1009 12.35 50.4396 12.35 49.75V19.85C12.35 19.1604 12.6239 18.4991 13.1115 18.0115C13.5991 17.5239 14.2604 17.25 14.95 17.25" stroke="#AEAEAE" stroke-width="2" stroke-linecap="round" stroke-linejoin="round"/>
<path d="M16.9 47.8H20.8" stroke="#AEAEAE" stroke-width="2" stroke-linecap="round" stroke-linejoin="round"/>
<path d="M29.9 47.8H33.8" stroke="#AEAEAE" stroke-width="2" stroke-linecap="round" stroke-linejoin="round"/>
<path d="M23.4 47.8H27.3" stroke="#AEAEAE" stroke-width="2" stroke-linecap="round" stroke-linejoin="round"/>
<path d="M16.9 42.6H20.8" stroke="#AEAEAE" stroke-width="2" stroke-linecap="round" stroke-linejoin="round"/>
<path d="M29.9 42.6H33.8" stroke="#AEAEAE" stroke-width="2" stroke-linecap="round" stroke-linejoin="round"/>
<path d="M23.4 42.6H27.3" stroke="#AEAEAE" stroke-width="2" stroke-linecap="round" stroke-linejoin="round"/>
<path d="M16.9 37.4H20.8" stroke="#AEAEAE" stroke-width="2" stroke-linecap="round" stroke-linejoin="round"/>
<path d="M29.9 37.4H33.8" stroke="#AEAEAE" stroke-width="2" stroke-linecap="round" stroke-linejoin="round"/>
<path d="M23.4 37.4H27.3" stroke="#AEAEAE" stroke-width="2" stroke-linecap="round" stroke-linejoin="round"/>
<path d="M18.2 32.85C17.8552 32.85 17.5246 32.713 17.2808 32.4692C17.037 32.2254 16.9 31.8948 16.9 31.55V27.65C16.9 27.3052 17.037 26.9746 17.2808 26.7308C17.5246 26.487 17.8552 26.35 18.2 26.35H32.5C32.8448 26.35 33.1754 26.487 33.4192 26.7308C33.663 26.9746 33.8 27.3052 33.8 27.65V31.55C33.8 31.8948 33.663 32.2254 33.4192 32.4692C33.1754 32.713 32.8448 32.85 32.5 32.85H20.8" stroke="#AEAEAE" stroke-width="2" stroke-linecap="round" stroke-linejoin="round"/>
<path d="M16.25 21.8H34.45" stroke="#AEAEAE" stroke-width="2" stroke-linecap="round" stroke-linejoin="round"/>
<path d="M30.55 1.64999H23.4C22.0209 1.64999 20.6982 2.19785 19.723 3.17304C18.7479 4.14823 18.2 5.47087 18.2 6.84999V21.8" stroke="#AEAEAE" stroke-width="2" stroke-linecap="round" stroke-linejoin="round"/>
<path d="M32.5 21.8V6.84999C32.5 5.47087 33.0479 4.14823 34.023 3.17304C34.9982 2.19785 36.3209 1.64999 37.7 1.64999C39.0791 1.64999 40.4018 2.19785 41.377 3.17304C42.3521 4.14823 42.9 5.47087 42.9 6.84999V11.4H35.1" stroke="#AEAEAE" stroke-width="2" stroke-linecap="round" stroke-linejoin="round"/>
<path d="M23.27 15.17C23.339 15.6726 23.5877 16.1333 23.97 16.4668C24.3524 16.8003 24.8426 16.984 25.35 16.984C25.8573 16.984 26.3476 16.8003 26.7299 16.4668C27.1123 16.1333 27.361 15.6726 27.43 15.17C27.4135 14.9137 27.3465 14.6632 27.2329 14.4329C27.1193 14.2026 26.9614 13.997 26.7681 13.8279C26.5748 13.6587 26.3501 13.5295 26.1067 13.4475C25.8633 13.3655 25.6062 13.3323 25.35 13.35C25.0938 13.3676 24.8366 13.3345 24.5933 13.2525C24.3499 13.1705 24.1251 13.0412 23.9319 12.8721C23.7386 12.703 23.5806 12.4974 23.4671 12.2671C23.3535 12.0368 23.2865 11.7863 23.27 11.53C23.339 11.0273 23.5877 10.5667 23.97 10.2332C24.3524 9.8997 24.8426 9.71597 25.35 9.71597C25.8573 9.71597 26.3476 9.8997 26.7299 10.2332C27.1123 10.5667 27.361 11.0273 27.43 11.53" stroke="#AEAEAE" stroke-width="2" stroke-linecap="round" stroke-linejoin="round"/>
<path d="M25.35 9.70999V8.79999" stroke="#AEAEAE" stroke-width="2" stroke-linecap="round" stroke-linejoin="round"/>
<path d="M25.35 17.9V16.99" stroke="#AEAEAE" stroke-width="2" stroke-linecap="round" stroke-linejoin="round"/>
</svg>
