<svg width="52" height="52" viewBox="0 0 52 52" fill="none" xmlns="http://www.w3.org/2000/svg">
<rect width="52" height="52" fill="white"/>
<g clip-path="url(#clip0_33_9)">
<path d="M30.7515 10.166H35.5095V43.42" stroke="#AEAEAE" stroke-width="2" stroke-linecap="round" stroke-linejoin="round"/>
<path d="M0.65 0.663025H18.395" stroke="#AEAEAE" stroke-width="2" stroke-linecap="round" stroke-linejoin="round"/>
<path d="M6.9875 10.166H24.7325" stroke="#AEAEAE" stroke-width="2" stroke-linecap="round" stroke-linejoin="round"/>
<path d="M3.822 19.669H21.5605" stroke="#AEAEAE" stroke-width="2" stroke-linecap="round" stroke-linejoin="round"/>
<path d="M14.118 47.3785H38.675" stroke="#AEAEAE" stroke-width="2" stroke-linecap="round" stroke-linejoin="round"/>
<path d="M0.65 38.6685V47.3785H6.1945" stroke="#AEAEAE" stroke-width="2" stroke-linecap="round" stroke-linejoin="round"/>
<path d="M46.5985 47.3785H51.35V34.6515C51.3583 32.9595 51.1397 31.274 50.7 29.64L48.3925 21.19C48.21 20.5142 47.8086 19.9179 47.2511 19.4945C46.6936 19.0711 46.0115 18.8445 45.3115 18.85H35.503" stroke="#AEAEAE" stroke-width="2" stroke-linecap="round" stroke-linejoin="round"/>
<path d="M0.65 29.1655H18.395" stroke="#AEAEAE" stroke-width="2" stroke-linecap="round" stroke-linejoin="round"/>
<path d="M42.6335 51.337C44.8197 51.337 46.592 49.5647 46.592 47.3785C46.592 45.1923 44.8197 43.42 42.6335 43.42C40.4473 43.42 38.675 45.1923 38.675 47.3785C38.675 49.5647 40.4473 51.337 42.6335 51.337Z" stroke="#AEAEAE" stroke-width="2" stroke-linecap="round" stroke-linejoin="round"/>
<path d="M10.1595 51.337C12.3457 51.337 14.118 49.5647 14.118 47.3785C14.118 45.1923 12.3457 43.42 10.1595 43.42C7.97329 43.42 6.20101 45.1923 6.20101 47.3785C6.20101 49.5647 7.97329 51.337 10.1595 51.337Z" stroke="#AEAEAE" stroke-width="2" stroke-linecap="round" stroke-linejoin="round"/>
</g>
<defs>
<clipPath id="clip0_33_9">
<rect width="52" height="52" fill="white"/>
</clipPath>
</defs>
</svg>
