<svg width="48" height="48" viewBox="0 0 48 48" fill="none" xmlns="http://www.w3.org/2000/svg">
<path d="M24.936 2.7125L24.9945 2.641C25.4129 2.13448 25.9606 1.75065 26.5794 1.5302C27.1983 1.30975 27.8653 1.26091 28.5097 1.38886C29.1541 1.5168 29.7519 1.81677 30.2396 2.25693C30.7273 2.6971 31.0868 3.26106 31.28 3.889V3.9735C31.3328 4.14414 31.4227 4.30104 31.5431 4.43302C31.6634 4.56499 31.8115 4.66881 31.9765 4.73708C32.1416 4.80535 32.3197 4.83639 32.4982 4.82799C32.6766 4.81959 32.851 4.77197 33.009 4.6885L33.087 4.643C33.6671 4.3352 34.3198 4.1901 34.9757 4.2231C35.6317 4.25609 36.2665 4.46594 36.8128 4.8304C37.3592 5.19487 37.7968 5.70037 38.0792 6.29332C38.3616 6.88628 38.4783 7.5446 38.417 8.1985V8.283C38.4044 8.45694 38.4294 8.63156 38.4903 8.79499C38.5512 8.95842 38.6465 9.10683 38.7698 9.23015C38.8931 9.35347 39.0415 9.44881 39.205 9.50969C39.3684 9.57057 39.543 9.59557 39.717 9.583H39.808C40.4651 9.50939 41.1298 9.6168 41.7302 9.89362C42.3307 10.1704 42.844 10.6061 43.2148 11.1536C43.5856 11.701 43.7997 12.3394 43.8339 12.9997C43.8681 13.66 43.7212 14.3171 43.409 14.9L43.37 14.978C43.2865 15.1355 43.2389 15.3094 43.2305 15.4874C43.2221 15.6655 43.2532 15.8431 43.3215 16.0077C43.3899 16.1723 43.4937 16.3198 43.6257 16.4396C43.7577 16.5593 43.9145 16.6484 44.085 16.7005H44.1695C44.8085 16.8829 45.3852 17.2374 45.8364 17.7253C46.2877 18.2132 46.5962 18.8157 46.7284 19.467C46.8605 20.1183 46.8112 20.7934 46.5857 21.4186C46.3603 22.0437 45.9674 22.5949 45.45 23.012L45.3785 23.064C45.2398 23.1774 45.128 23.3202 45.0513 23.4821C44.9745 23.6439 44.9347 23.8208 44.9347 24C44.9347 24.1791 44.9745 24.3561 45.0513 24.5179C45.128 24.6798 45.2398 24.8226 45.3785 24.936L45.45 24.988C45.9565 25.4085 46.3391 25.9588 46.5567 26.5802C46.7742 27.2015 46.8186 27.8703 46.685 28.5149C46.5514 29.1595 46.2449 29.7556 45.7983 30.2393C45.3517 30.723 44.7819 31.076 44.15 31.2605H44.0655C43.895 31.3126 43.7382 31.4017 43.6062 31.5214C43.4742 31.6412 43.3704 31.7887 43.302 31.9533C43.2337 32.1179 43.2026 32.2955 43.211 32.4735C43.2194 32.6516 43.267 32.8255 43.3505 32.983L43.3895 33.061C43.6986 33.6403 43.8446 34.2926 43.8121 34.9484C43.7795 35.6042 43.5695 36.2388 43.2045 36.7846C42.8395 37.3304 42.3332 37.7669 41.7396 38.0475C41.146 38.3281 40.4874 38.4424 39.834 38.378H39.743C39.569 38.3654 39.3944 38.3904 39.231 38.4513C39.0675 38.5122 38.9191 38.6075 38.7958 38.7308C38.6725 38.8542 38.5772 39.0026 38.5163 39.166C38.4554 39.3294 38.4304 39.5041 38.443 39.678V39.7625C38.5137 40.4213 38.4032 41.087 38.1235 41.6877C37.8438 42.2884 37.4054 42.8013 36.8556 43.1712C36.3058 43.5411 35.6654 43.7539 35.0036 43.7866C34.3418 43.8193 33.6836 43.6708 33.1 43.357L33.022 43.3115C32.864 43.228 32.6896 43.1804 32.5112 43.172C32.3327 43.1636 32.1546 43.1946 31.9895 43.2629C31.8245 43.3312 31.6764 43.435 31.5561 43.567C31.4357 43.699 31.3458 43.8559 31.293 44.0265V44.111C31.0998 44.7389 30.7403 45.3029 30.2526 45.7431C29.7649 46.1832 29.1671 46.4832 28.5227 46.6111C27.8783 46.7391 27.2113 46.6902 26.5924 46.4698C25.9736 46.2493 25.4259 45.8655 25.0075 45.359L24.949 45.2875C24.8349 45.1498 24.6919 45.039 24.5301 44.963C24.3683 44.8869 24.1917 44.8475 24.013 44.8475C23.8342 44.8475 23.6576 44.8869 23.4958 44.963C23.334 45.039 23.191 45.1498 23.077 45.2875L23.0185 45.359C22.6001 45.8655 22.0524 46.2493 21.4335 46.4698C20.8146 46.6902 20.1476 46.7391 19.5032 46.6111C18.8588 46.4832 18.2611 46.1832 17.7733 45.7431C17.2856 45.3029 16.9261 44.7389 16.733 44.111V44.0265C16.6801 43.8559 16.5903 43.699 16.4699 43.567C16.3495 43.435 16.2015 43.3312 16.0364 43.2629C15.8713 43.1946 15.6932 43.1636 15.5148 43.172C15.3363 43.1804 15.1619 43.228 15.004 43.3115L14.926 43.357C14.3458 43.6648 13.6931 43.8099 13.0372 43.7769C12.3813 43.7439 11.7465 43.5341 11.2001 43.1696C10.6537 42.8051 10.2162 42.2996 9.93375 41.7067C9.65134 41.1137 9.53462 40.4554 9.59597 39.8015V39.717C9.60855 39.5431 9.58355 39.3684 9.52267 39.205C9.46178 39.0416 9.36644 38.8932 9.24312 38.7698C9.1198 38.6465 8.97139 38.5512 8.80796 38.4903C8.64453 38.4294 8.46992 38.4044 8.29597 38.417H8.20497C7.54685 38.4933 6.8804 38.3878 6.27797 38.1121C5.67553 37.8364 5.16013 37.401 4.78769 36.853C4.41525 36.3051 4.20001 35.6656 4.16533 35.004C4.13065 34.3424 4.27786 33.6839 4.59097 33.1L4.62997 33.022C4.71344 32.8645 4.76107 32.6906 4.76944 32.5125C4.77781 32.3345 4.74672 32.1569 4.67839 31.9923C4.61007 31.8277 4.5062 31.6802 4.37422 31.5604C4.24224 31.4407 4.08541 31.3516 3.91497 31.2995H3.83047C3.19143 31.1171 2.61479 30.7625 2.16353 30.2747C1.71226 29.7868 1.40372 29.1843 1.27158 28.533C1.13944 27.8817 1.18879 27.2066 1.41423 26.5814C1.63968 25.9563 2.03256 25.4051 2.54997 24.988L2.62147 24.936C2.76017 24.8226 2.87193 24.6798 2.94868 24.5179C3.02542 24.3561 3.06524 24.1791 3.06524 24C3.06524 23.8208 3.02542 23.6439 2.94868 23.4821C2.87193 23.3202 2.76017 23.1774 2.62147 23.064L2.54997 23.012C2.04342 22.5915 1.66086 22.0412 1.44329 21.4198C1.22572 20.7985 1.18136 20.1297 1.31496 19.4851C1.44856 18.8405 1.75508 18.2444 2.20166 17.7607C2.64824 17.277 3.21804 16.924 3.84997 16.7395H3.93447C4.10491 16.6874 4.26174 16.5983 4.39372 16.4786C4.5257 16.3588 4.62957 16.2113 4.69789 16.0467C4.76622 15.8821 4.79731 15.7045 4.78894 15.5264C4.78057 15.3484 4.73294 15.1745 4.64947 15.017L4.59097 14.9C4.28187 14.3207 4.13582 13.6684 4.16839 13.0126C4.20096 12.3568 4.41093 11.7222 4.77591 11.1764C5.14089 10.6306 5.64719 10.1941 6.24079 9.91347C6.8344 9.63285 7.49304 9.51863 8.14647 9.583H8.23747C8.41142 9.59557 8.58603 9.57057 8.74946 9.50969C8.91289 9.44881 9.0613 9.35347 9.18462 9.23015C9.30794 9.10683 9.40328 8.95842 9.46417 8.79499C9.52505 8.63156 9.55005 8.45694 9.53747 8.283V8.1985C9.47232 7.54007 9.58787 6.87633 9.87169 6.27865C10.1555 5.68098 10.5969 5.17196 11.1483 4.80633C11.6998 4.44071 12.3404 4.2323 13.0015 4.20353C13.6625 4.17475 14.3188 4.32668 14.9 4.643L14.978 4.6885C15.1359 4.77197 15.3103 4.81959 15.4888 4.82799C15.6672 4.83639 15.8453 4.80535 16.0104 4.73708C16.1755 4.66881 16.3235 4.56499 16.4439 4.43302C16.5643 4.30104 16.6541 4.14414 16.707 3.9735V3.889C16.9001 3.26106 17.2596 2.6971 17.7473 2.25693C18.2351 1.81677 18.8328 1.5168 19.4772 1.38886C20.1216 1.26091 20.7886 1.30975 21.4075 1.5302C22.0264 1.75065 22.5741 2.13448 22.9925 2.641L23.051 2.7125C23.165 2.85246 23.3087 2.96528 23.4717 3.04276C23.6347 3.12024 23.813 3.16045 23.9935 3.16045C24.174 3.16045 24.3522 3.12024 24.5152 3.04276C24.6783 2.96528 24.822 2.85246 24.936 2.7125V2.7125Z" stroke="#AEAEAE" stroke-width="2" stroke-linecap="round" stroke-linejoin="round"/>
</svg>
