<svg width="52" height="52" viewBox="0 0 52 52" fill="none" xmlns="http://www.w3.org/2000/svg">
<rect width="52" height="52" fill="white"/>
<path d="M26.936 4.7125L26.9945 4.641C27.4129 4.13448 27.9606 3.75065 28.5794 3.5302C29.1983 3.30975 29.8653 3.26091 30.5097 3.38886C31.1541 3.5168 31.7519 3.81677 32.2396 4.25693C32.7273 4.6971 33.0868 5.26106 33.28 5.889V5.9735C33.3328 6.14414 33.4227 6.30104 33.5431 6.43302C33.6634 6.56499 33.8115 6.66881 33.9765 6.73708C34.1416 6.80535 34.3197 6.83639 34.4982 6.82799C34.6766 6.81959 34.851 6.77197 35.009 6.6885L35.087 6.643C35.6671 6.3352 36.3198 6.1901 36.9757 6.2231C37.6317 6.25609 38.2665 6.46594 38.8128 6.8304C39.3592 7.19487 39.7968 7.70037 40.0792 8.29332C40.3616 8.88628 40.4783 9.5446 40.417 10.1985V10.283C40.4044 10.4569 40.4294 10.6316 40.4903 10.795C40.5512 10.9584 40.6465 11.1068 40.7698 11.2302C40.8931 11.3535 41.0415 11.4488 41.205 11.5097C41.3684 11.5706 41.543 11.5956 41.717 11.583H41.808C42.4651 11.5094 43.1298 11.6168 43.7302 11.8936C44.3307 12.1704 44.844 12.6061 45.2148 13.1536C45.5856 13.701 45.7997 14.3394 45.8339 14.9997C45.8681 15.66 45.7212 16.3171 45.409 16.9L45.37 16.978C45.2865 17.1355 45.2389 17.3094 45.2305 17.4874C45.2221 17.6655 45.2532 17.8431 45.3215 18.0077C45.3899 18.1723 45.4937 18.3198 45.6257 18.4396C45.7577 18.5593 45.9145 18.6484 46.085 18.7005H46.1695C46.8085 18.8829 47.3852 19.2374 47.8364 19.7253C48.2877 20.2132 48.5962 20.8157 48.7284 21.467C48.8605 22.1183 48.8112 22.7934 48.5857 23.4186C48.3603 24.0437 47.9674 24.5949 47.45 25.012L47.3785 25.064C47.2398 25.1774 47.128 25.3202 47.0513 25.4821C46.9745 25.6439 46.9347 25.8208 46.9347 26C46.9347 26.1791 46.9745 26.3561 47.0513 26.5179C47.128 26.6798 47.2398 26.8226 47.3785 26.936L47.45 26.988C47.9565 27.4085 48.3391 27.9588 48.5567 28.5802C48.7742 29.2015 48.8186 29.8703 48.685 30.5149C48.5514 31.1595 48.2449 31.7556 47.7983 32.2393C47.3517 32.723 46.7819 33.076 46.15 33.2605H46.0655C45.895 33.3126 45.7382 33.4017 45.6062 33.5214C45.4742 33.6412 45.3704 33.7887 45.302 33.9533C45.2337 34.1179 45.2026 34.2955 45.211 34.4735C45.2194 34.6516 45.267 34.8255 45.3505 34.983L45.3895 35.061C45.6986 35.6403 45.8446 36.2926 45.8121 36.9484C45.7795 37.6042 45.5695 38.2388 45.2045 38.7846C44.8395 39.3304 44.3332 39.7669 43.7396 40.0475C43.146 40.3281 42.4874 40.4424 41.834 40.378H41.743C41.569 40.3654 41.3944 40.3904 41.231 40.4513C41.0675 40.5122 40.9191 40.6075 40.7958 40.7308C40.6725 40.8542 40.5772 41.0026 40.5163 41.166C40.4554 41.3294 40.4304 41.5041 40.443 41.678V41.7625C40.5137 42.4213 40.4032 43.087 40.1235 43.6877C39.8438 44.2884 39.4054 44.8013 38.8556 45.1712C38.3058 45.5411 37.6654 45.7539 37.0036 45.7866C36.3418 45.8193 35.6836 45.6708 35.1 45.357L35.022 45.3115C34.864 45.228 34.6896 45.1804 34.5112 45.172C34.3327 45.1636 34.1546 45.1946 33.9895 45.2629C33.8245 45.3312 33.6764 45.435 33.5561 45.567C33.4357 45.699 33.3458 45.8559 33.293 46.0265V46.111C33.0998 46.7389 32.7403 47.3029 32.2526 47.7431C31.7649 48.1832 31.1671 48.4832 30.5227 48.6111C29.8783 48.7391 29.2113 48.6902 28.5924 48.4698C27.9736 48.2493 27.4259 47.8655 27.0075 47.359L26.949 47.2875C26.8349 47.1498 26.6919 47.039 26.5301 46.963C26.3683 46.8869 26.1917 46.8475 26.013 46.8475C25.8342 46.8475 25.6576 46.8869 25.4958 46.963C25.334 47.039 25.191 47.1498 25.077 47.2875L25.0185 47.359C24.6001 47.8655 24.0524 48.2493 23.4335 48.4698C22.8146 48.6902 22.1476 48.7391 21.5032 48.6111C20.8588 48.4832 20.2611 48.1832 19.7733 47.7431C19.2856 47.3029 18.9261 46.7389 18.733 46.111V46.0265C18.6801 45.8559 18.5903 45.699 18.4699 45.567C18.3495 45.435 18.2015 45.3312 18.0364 45.2629C17.8713 45.1946 17.6932 45.1636 17.5148 45.172C17.3363 45.1804 17.1619 45.228 17.004 45.3115L16.926 45.357C16.3458 45.6648 15.6931 45.8099 15.0372 45.7769C14.3813 45.7439 13.7465 45.5341 13.2001 45.1696C12.6537 44.8051 12.2162 44.2996 11.9337 43.7067C11.6513 43.1137 11.5346 42.4554 11.596 41.8015V41.717C11.6085 41.5431 11.5835 41.3684 11.5227 41.205C11.4618 41.0416 11.3664 40.8932 11.2431 40.7698C11.1198 40.6465 10.9714 40.5512 10.808 40.4903C10.6445 40.4294 10.4699 40.4044 10.296 40.417H10.205C9.54685 40.4933 8.8804 40.3878 8.27797 40.1121C7.67553 39.8364 7.16013 39.401 6.78769 38.853C6.41525 38.3051 6.20001 37.6656 6.16533 37.004C6.13065 36.3424 6.27786 35.6839 6.59097 35.1L6.62997 35.022C6.71344 34.8645 6.76107 34.6906 6.76944 34.5125C6.77781 34.3345 6.74672 34.1569 6.67839 33.9923C6.61007 33.8277 6.5062 33.6802 6.37422 33.5604C6.24224 33.4407 6.08541 33.3516 5.91497 33.2995H5.83047C5.19143 33.1171 4.61479 32.7625 4.16353 32.2747C3.71226 31.7868 3.40372 31.1843 3.27158 30.533C3.13944 29.8817 3.18879 29.2066 3.41423 28.5814C3.63968 27.9563 4.03256 27.4051 4.54997 26.988L4.62147 26.936C4.76017 26.8226 4.87193 26.6798 4.94868 26.5179C5.02542 26.3561 5.06524 26.1791 5.06524 26C5.06524 25.8208 5.02542 25.6439 4.94868 25.4821C4.87193 25.3202 4.76017 25.1774 4.62147 25.064L4.54997 25.012C4.04342 24.5915 3.66086 24.0412 3.44329 23.4198C3.22572 22.7985 3.18136 22.1297 3.31496 21.4851C3.44856 20.8405 3.75508 20.2444 4.20166 19.7607C4.64824 19.277 5.21804 18.924 5.84997 18.7395H5.93447C6.10491 18.6874 6.26174 18.5983 6.39372 18.4786C6.5257 18.3588 6.62957 18.2113 6.69789 18.0467C6.76622 17.8821 6.79731 17.7045 6.78894 17.5264C6.78057 17.3484 6.73294 17.1745 6.64947 17.017L6.59097 16.9C6.28187 16.3207 6.13582 15.6684 6.16839 15.0126C6.20096 14.3568 6.41093 13.7222 6.77591 13.1764C7.14089 12.6306 7.64719 12.1941 8.24079 11.9135C8.8344 11.6329 9.49304 11.5186 10.1465 11.583H10.2375C10.4114 11.5956 10.586 11.5706 10.7495 11.5097C10.9129 11.4488 11.0613 11.3535 11.1846 11.2302C11.3079 11.1068 11.4033 10.9584 11.4642 10.795C11.525 10.6316 11.55 10.4569 11.5375 10.283V10.1985C11.4723 9.54007 11.5879 8.87633 11.8717 8.27865C12.1555 7.68098 12.5969 7.17196 13.1483 6.80633C13.6998 6.44071 14.3404 6.2323 15.0015 6.20353C15.6625 6.17475 16.3188 6.32668 16.9 6.643L16.978 6.6885C17.1359 6.77197 17.3103 6.81959 17.4888 6.82799C17.6672 6.83639 17.8453 6.80535 18.0104 6.73708C18.1755 6.66881 18.3235 6.56499 18.4439 6.43302C18.5643 6.30104 18.6541 6.14414 18.707 5.9735V5.889C18.9001 5.26106 19.2596 4.6971 19.7473 4.25693C20.2351 3.81677 20.8328 3.5168 21.4772 3.38886C22.1216 3.26091 22.7886 3.30975 23.4075 3.5302C24.0264 3.75065 24.5741 4.13448 24.9925 4.641L25.051 4.7125C25.165 4.85246 25.3087 4.96528 25.4717 5.04276C25.6347 5.12024 25.813 5.16045 25.9935 5.16045C26.174 5.16045 26.3522 5.12024 26.5152 5.04276C26.6783 4.96528 26.822 4.85246 26.936 4.7125V4.7125Z" stroke="#AEAEAE" stroke-width="2" stroke-linecap="round" stroke-linejoin="round"/>
<path d="M18.499 34.9115L33.501 17.0885" stroke="#AEAEAE" stroke-width="2" stroke-linecap="round" stroke-linejoin="round"/>
<path d="M21.4175 22.945C23.0294 22.945 24.336 21.6354 24.336 20.02C24.336 18.4046 23.0294 17.095 21.4175 17.095C19.8057 17.095 18.499 18.4046 18.499 20.02C18.499 21.6354 19.8057 22.945 21.4175 22.945Z" stroke="#AEAEAE" stroke-width="2" stroke-linecap="round" stroke-linejoin="round"/>
<path d="M30.5825 34.905C32.1943 34.905 33.501 33.5954 33.501 31.98C33.501 30.3646 32.1943 29.055 30.5825 29.055C28.9706 29.055 27.664 30.3646 27.664 31.98C27.664 33.5954 28.9706 34.905 30.5825 34.905Z" stroke="#AEAEAE" stroke-width="2" stroke-linecap="round" stroke-linejoin="round"/>
</svg>
