<svg width="52" height="52" viewBox="0 0 52 52" fill="none" xmlns="http://www.w3.org/2000/svg">
<rect width="52" height="52" fill="white"/>
<g clip-path="url(#clip0_18_381)">
<path d="M17.095 27.43C21.0295 27.43 24.219 24.2376 24.219 20.2995C24.219 16.3614 21.0295 13.169 17.095 13.169C13.1605 13.169 9.97101 16.3614 9.97101 20.2995C9.97101 24.2376 13.1605 27.43 17.095 27.43Z" stroke="#AEAEAE" stroke-width="2" stroke-linecap="round" stroke-linejoin="round"/>
<path d="M32.2335 11.102C32.4386 10.1038 32.9592 9.19803 33.7185 8.51834C34.4778 7.83864 35.4354 7.42105 36.4502 7.3272C37.4649 7.23336 38.4829 7.46823 39.3539 7.99716C40.225 8.52608 40.9029 9.32103 41.2876 10.2647C41.6723 11.2083 41.7435 12.2506 41.4906 13.2378C41.2376 14.225 40.674 15.1047 39.883 15.7471C39.0919 16.3894 38.1152 16.7605 37.0972 16.8054C36.0791 16.8503 35.0736 16.5667 34.229 15.9965" stroke="#AEAEAE" stroke-width="2" stroke-linecap="round" stroke-linejoin="round"/>
<path d="M32.773 28.301L37.05 35.503L46.8 18.603C47.8298 16.756 48.3607 14.6726 48.3405 12.558C48.36 5.98652 43.225 0.650024 36.8875 0.650024C35.0994 0.657211 33.3386 1.08874 31.7498 1.90912C30.161 2.72951 28.7897 3.91531 27.7485 5.36902" stroke="#AEAEAE" stroke-width="2" stroke-linecap="round" stroke-linejoin="round"/>
<path d="M5.64849 27.599C4.3125 25.484 3.6151 23.0285 3.63999 20.527C3.66089 18.4687 4.15375 16.4427 5.08064 14.6048C6.00753 12.7669 7.34373 11.1662 8.98641 9.92587C10.6291 8.68551 12.5345 7.83857 14.5559 7.45024C16.5773 7.0619 18.6608 7.14253 20.6462 7.68591C22.6316 8.22928 24.4658 9.22092 26.0077 10.5845C27.5496 11.9481 28.7581 13.6473 29.5402 15.5513C30.3223 17.4553 30.6571 19.5134 30.5189 21.5671C30.3807 23.6208 29.7731 25.6154 28.743 27.3975" stroke="#AEAEAE" stroke-width="2" stroke-linecap="round" stroke-linejoin="round"/>
<path d="M28.743 27.3975L17.2965 46.5985L8.35901 32.019" stroke="#AEAEAE" stroke-width="2" stroke-linecap="round" stroke-linejoin="round"/>
<path d="M12.35 44.4405C10.894 45.1685 9.97754 46.215 9.97754 47.3915C9.97754 49.5755 13.169 51.35 17.1275 51.35C21.086 51.35 24.2775 49.5755 24.2775 47.3915C24.2775 46.215 23.3545 45.1685 21.905 44.4405" stroke="#AEAEAE" stroke-width="2" stroke-linecap="round" stroke-linejoin="round"/>
<path d="M32.5715 33.3645C32.2212 33.5704 31.9262 33.8585 31.7122 34.2039C31.4982 34.5493 31.3714 34.9416 31.343 35.347C31.343 37.0955 33.826 38.519 36.8875 38.519C39.949 38.519 42.4255 37.0955 42.4255 35.347C42.4042 34.9535 42.2885 34.571 42.0883 34.2316C41.888 33.8922 41.6091 33.606 41.275 33.397" stroke="#AEAEAE" stroke-width="2" stroke-linecap="round" stroke-linejoin="round"/>
</g>
<defs>
<clipPath id="clip0_18_381">
<rect width="52" height="52" fill="white"/>
</clipPath>
</defs>
</svg>
